<svg width="120" height="45" viewBox="0 0 120 45" fill="none" xmlns="http://www.w3.org/2000/svg">
<rect width="120" height="45" fill="#F5F5F5"/>
<path d="M74.418 26C73.2425 26 72.1944 26.1067 71.2738 26.32C69.8151 26.6533 69.0857 27.2133 69.0857 28H78.6456V30H66.9612V28C66.9612 26.5733 67.8818 25.5067 69.723 24.8C71.0826 24.2667 72.6406 24 74.3968 24C74.9774 24 75.4731 23.8067 75.8839 23.42C76.3088 23.02 76.5212 22.5467 76.5212 22C76.5212 21.4533 76.3088 20.9867 75.8839 20.6C75.4731 20.2 74.9774 20 74.3968 20H71.2101C70.6294 20 70.1266 20.2 69.7018 20.6C69.291 20.9867 69.0857 21.4533 69.0857 22H66.9612C66.9612 20.88 67.372 19.9333 68.1934 19.16C69.0149 18.3867 70.0204 18 71.2101 18H74.3968C75.5864 18 76.592 18.3867 77.4135 19.16C78.2349 19.9333 78.6456 20.88 78.6456 22C78.6456 23.12 78.2349 24.0667 77.4135 24.84C76.592 25.6133 75.5935 26 74.418 26Z" fill="#87909A"/>
<path d="M35 26.5H37.1244V27C37.1244 27.28 37.2236 27.52 37.4219 27.72C37.6343 27.9067 37.8892 28 38.1866 28H44.0288C44.2838 28 44.5316 27.8067 44.7724 27.42C44.9848 27.0733 45.0911 26.7667 45.0911 26.5C45.0911 26.2333 44.9778 25.92 44.7511 25.56C44.5245 25.1867 44.2838 25 44.0288 25H38.1866C37.1528 25 36.3526 24.6533 35.786 23.96C35.262 23.32 35 22.5 35 21.5C35 20.58 35.2833 19.78 35.8498 19.1C36.4446 18.3667 37.2236 18 38.1866 18H44.0288C44.9069 18 45.6576 18.2933 46.2807 18.88C46.9039 19.4667 47.2155 20.1733 47.2155 21V21.5H45.0911V21C45.0911 20.72 44.9848 20.4867 44.7724 20.3C44.5741 20.1 44.3263 20 44.0288 20H38.1866C37.9034 20 37.6555 20.18 37.4431 20.54C37.2307 20.8867 37.1244 21.2067 37.1244 21.5C37.1244 21.78 37.2307 22.0867 37.4431 22.42C37.6697 22.8067 37.9176 23 38.1866 23H44.0288C45.0627 23 45.8629 23.3467 46.4294 24.04C46.9535 24.68 47.2155 25.5 47.2155 26.5C47.2155 27.42 46.9322 28.22 46.3657 28.9C45.7709 29.6333 44.9919 30 44.0288 30H38.1866C37.3086 30 36.5579 29.7067 35.9348 29.12C35.3116 28.5333 35 27.8267 35 27V26.5Z" fill="#87909A"/>
<path d="M61.0347 24C61.0347 25.68 60.4186 27.1 59.1864 28.26C57.9542 29.42 56.4459 30 54.6614 30C52.8769 30 51.3685 29.42 50.1363 28.26C48.9042 27.1 48.2881 25.68 48.2881 24C48.2881 22.32 48.9042 20.9 50.1363 19.74C51.3685 18.58 52.8769 18 54.6614 18C56.4459 18 57.9542 18.58 59.1864 19.74C60.4186 20.9 61.0347 22.32 61.0347 24ZM58.9102 24C58.9102 22.8667 58.4995 21.92 57.6781 21.16C56.8708 20.3867 55.8652 20 54.6614 20C53.4575 20 52.4449 20.3867 51.6234 21.16C50.8162 21.92 50.4125 22.8667 50.4125 24C50.4125 25.1333 50.8162 26.0867 51.6234 26.86C52.4449 27.62 53.4575 28 54.6614 28C55.8652 28 56.8708 27.62 57.6781 26.86C58.4995 26.0867 58.9102 25.1333 58.9102 24Z" fill="#87909A"/>
<path d="M62.099 14H64.2234V30H62.099V14Z" fill="#87909A"/>
<path d="M81.3865 28H83.5109V30H81.3865V28Z" fill="#87909A"/>
<path d="M90.9402 20C89.7364 20 88.7237 20.3867 87.9023 21.16C87.095 21.92 86.6914 22.8667 86.6914 24V30H84.5669V24C84.5669 22.32 85.183 20.9 86.4152 19.74C87.6474 18.58 89.1557 18 90.9402 18C92.7248 18 94.2331 18.58 95.4653 19.74C96.6974 20.9 97.3135 22.32 97.3135 24V30H95.1891V24C95.1891 22.8667 94.7784 21.92 93.9569 21.16C93.1496 20.3867 92.1441 20 90.9402 20Z" fill="#87909A"/>
<path d="M109 29V30H106.876V29C106.876 27.8667 106.465 26.92 105.643 26.16C104.836 25.3867 103.831 25 102.627 25H100.502V30H98.3778V14H100.502V23H102.627C103.831 23 104.836 22.62 105.643 21.86C106.465 21.0867 106.876 20.1333 106.876 19V18H109V19C109 21.1467 108.051 22.8133 106.153 24C108.051 25.1867 109 26.8533 109 29Z" fill="#87909A"/>
<path d="M81.3865 14H83.5109V27L81.3865 23.6V14Z" fill="#87909A"/>
<path d="M19.9368 25.9663C20.0696 26.0351 20.2285 26.0305 20.357 25.9541V25.9541C20.6485 25.781 20.6368 25.3553 20.3363 25.1984L13.8807 21.828C13.0253 21.3814 13.042 20.1516 13.9092 19.7283V19.7283L12.9169 19.2372L11.5328 19.9084C11.2069 20.0663 11 20.3966 11 20.7587V20.7587C11 21.1117 11.1967 21.4353 11.5101 21.5978L19.9368 25.9663Z" fill="#87909A"/>
<path d="M19.1093 16.9991C19.9803 16.542 21.0202 16.5409 21.8922 16.9963L27.3342 19.8385C28.5474 20.4721 30 19.592 30 18.2234V18.2234C30 17.5542 29.6332 16.9388 29.0446 16.6205L21.861 12.736C21.0071 12.2742 19.9826 12.2542 19.1113 12.6822L11.729 16.3085C11.2828 16.5278 11 16.9817 11 17.4789V17.4789C11 17.9747 11.2812 18.4276 11.7255 18.6476L12.9169 19.2372L13.9092 19.7283L26.0936 25.7589L27.0498 25.2607L14.8237 19.2483L13.8252 18.7573L12.0662 17.8923C11.913 17.8169 11.816 17.6611 11.816 17.4904V17.4904C11.816 17.3191 11.9137 17.1628 12.0677 17.0878L19.1263 13.6498C19.9894 13.2295 21.0014 13.2475 21.8489 13.6984L28.552 17.2642C28.8692 17.433 29.0675 17.763 29.0675 18.1223V18.1223C29.0675 18.8534 28.2908 19.3228 27.6435 18.9829L21.8991 15.9656C21.0234 15.5057 19.9773 15.507 19.1027 15.969L13.8252 18.7573L14.8237 19.2483L19.1093 16.9991Z" fill="#87909A"/>
<path d="M28.794 27.0954C28.9615 27.1783 29.0675 27.349 29.0675 27.5359V27.5359C29.0675 27.7228 28.9614 27.8936 28.7938 27.9764L21.8791 31.3951C21.0133 31.8232 19.9944 31.8082 19.1415 31.3549L12.3341 27.7369C12.0152 27.5675 11.816 27.2359 11.816 26.8748V26.8748C11.816 26.1428 12.5916 25.6712 13.2415 26.0079L19.1062 29.047C19.9793 29.4994 21.0186 29.4953 21.888 29.0359L27.1246 26.2692L28.0771 25.7659L29.4902 25.0194C29.8038 24.8537 30 24.5281 30 24.1734V24.1734C30 23.8184 29.8034 23.4925 29.4893 23.327L21.2837 19.002C21.1229 18.9172 20.9294 18.9229 20.7739 19.017V19.017C20.426 19.2275 20.445 19.7383 20.8075 19.9224L27.0935 23.1133C27.9399 23.543 27.9689 24.7415 27.1442 25.2115V25.2115L27.0498 25.2607L26.0936 25.7589L21.8635 27.9627C21.0074 28.4087 19.9891 28.4155 19.1271 27.9811L13.634 25.2123C12.4259 24.6033 11 25.4814 11 26.8343V26.8343C11 27.5045 11.3691 28.1203 11.9603 28.4363L19.1436 32.2751C19.9952 32.7302 21.0137 32.7476 21.8803 32.3219L29.272 28.6909C29.7176 28.472 30 28.0187 30 27.5222V27.5222C30 27.0259 29.7179 26.5728 29.2725 26.3538L28.0771 25.7659L27.1246 26.2692L28.794 27.0954Z" fill="#87909A"/>
<path d="M14.8237 19.2483L19.1093 16.9991C19.9803 16.542 21.0202 16.5409 21.8922 16.9963L27.3342 19.8385C28.5474 20.4721 30 19.592 30 18.2234V18.2234C30 17.5542 29.6332 16.9388 29.0446 16.6205L21.861 12.736C21.0071 12.2742 19.9826 12.2542 19.1113 12.6822L11.729 16.3085C11.2828 16.5278 11 16.9817 11 17.4789V17.4789C11 17.9747 11.2812 18.4276 11.7255 18.6476L12.9169 19.2372M14.8237 19.2483L13.8252 18.7573M14.8237 19.2483L27.0498 25.2607M12.9169 19.2372L11.5328 19.9084C11.2069 20.0663 11 20.3966 11 20.7587V20.7587C11 21.1117 11.1967 21.4353 11.5101 21.5978L19.9368 25.9663C20.0696 26.0351 20.2285 26.0305 20.357 25.9541V25.9541C20.6485 25.781 20.6368 25.3553 20.3363 25.1984L13.8807 21.828C13.0253 21.3814 13.042 20.1516 13.9092 19.7283V19.7283M12.9169 19.2372L13.9092 19.7283M13.8252 18.7573L12.0662 17.8923C11.913 17.8169 11.816 17.6611 11.816 17.4904V17.4904C11.816 17.3191 11.9137 17.1628 12.0677 17.0878L19.1263 13.6498C19.9894 13.2295 21.0014 13.2475 21.8489 13.6984L28.552 17.2642C28.8692 17.433 29.0675 17.763 29.0675 18.1223V18.1223C29.0675 18.8534 28.2908 19.3228 27.6435 18.9829L21.8991 15.9656C21.0234 15.5057 19.9773 15.507 19.1027 15.969L13.8252 18.7573ZM13.9092 19.7283L26.0936 25.7589M26.0936 25.7589L27.0498 25.2607M26.0936 25.7589L21.8635 27.9627C21.0074 28.4087 19.9891 28.4155 19.1271 27.9811L13.634 25.2123C12.4259 24.6033 11 25.4814 11 26.8343V26.8343C11 27.5045 11.3691 28.1203 11.9603 28.4363L19.1436 32.2751C19.9952 32.7302 21.0137 32.7476 21.8803 32.3219L29.272 28.6909C29.7176 28.472 30 28.0187 30 27.5222V27.5222C30 27.0259 29.7179 26.5728 29.2725 26.3538L28.0771 25.7659M27.0498 25.2607L27.1442 25.2115V25.2115C27.9689 24.7415 27.9399 23.543 27.0935 23.1133L20.8075 19.9224C20.445 19.7383 20.426 19.2275 20.7739 19.017V19.017C20.9294 18.9229 21.1229 18.9172 21.2837 19.002L29.4893 23.327C29.8034 23.4925 30 23.8184 30 24.1734V24.1734C30 24.5281 29.8038 24.8537 29.4902 25.0194L28.0771 25.7659M28.0771 25.7659L27.1246 26.2692M27.1246 26.2692L21.888 29.0359C21.0186 29.4953 19.9793 29.4994 19.1062 29.047L13.2415 26.0079C12.5916 25.6712 11.816 26.1428 11.816 26.8748V26.8748C11.816 27.2359 12.0152 27.5675 12.3341 27.7369L19.1415 31.3549C19.9944 31.8082 21.0133 31.8232 21.8791 31.3951L28.7938 27.9764C28.9614 27.8936 29.0675 27.7228 29.0675 27.5359V27.5359C29.0675 27.349 28.9615 27.1783 28.794 27.0954L27.1246 26.2692Z" stroke="#87909A" stroke-width="0.4"/>
</svg>
